<svg xmlns="http://www.w3.org/2000/svg" viewBox="0 0 18.52 25.54"><defs><style>.cls-1{fill:#ddc8af;}</style></defs><g id="Layer_2" data-name="Layer 2"><g id="Venue"><path class="cls-1" d="M17.92,13.23c-1.22-2.3-6-4.29-8.26-3.52S5.81,15,6.19,20.47c.31,4.44,5,5.62,7.45,4.85,1.66-.52,3.67-2.6,4.59-6C18.69,17.67,18.6,14.5,17.92,13.23Zm-5.66,8.6c-1.37,0-1.82-2-1.67-3.79.13-1.51,1-3.53,2.58-3.34,1.21.15,1.52,1.67,1.52,3.34S13.78,21.83,12.26,21.83Z"/><path class="cls-1" d="M.58,6.2c-1,.78-.52,2.85.35,4.09,1,1.5,2.76,2.24,3.57,1.5s.33-3-.6-4.21S1.46,5.55.58,6.2Z"/><path class="cls-1" d="M11,1.15C9.8,1.57,9.69,3.65,10.25,5c.68,1.64,1.7,2.48,2.68,2.15s1.25-2.49.73-3.83C13.08,1.8,12,.79,11,1.15Z"/><path class="cls-1" d="M4.09.11C2.91.67,3.22,3,3.84,4.38,4.58,6.05,5.8,7.06,7,6.66s1-2.87.41-4.28C6.71.73,5.07-.36,4.09.11Z"/></g></g></svg>