<svg width="227" height="38" viewBox="0 0 227 38" fill="none" xmlns="http://www.w3.org/2000/svg">
<path d="M11.27 8.5H9.88V11H8.78V3.82H11.27C12.88 3.82 13.92 4.64 13.92 6.14C13.92 7.65 12.88 8.5 11.27 8.5ZM11.26 4.75H9.88V7.57H11.26C12.23 7.57 12.82 7.04 12.82 6.15C12.82 5.26 12.23 4.75 11.26 4.75ZM21.4622 11L20.8122 9.22H17.7122L17.0522 11H15.9422L18.6922 3.82H19.9022L22.6322 11H21.4622ZM19.2722 5.02L18.0422 8.33H20.4822L19.2722 5.02ZM28.4226 11.15C26.3526 11.15 24.7526 9.58 24.7526 7.4C24.7526 5.28 26.2726 3.67 28.3626 3.67C30.2126 3.67 31.4626 4.8 31.9026 6.29H30.6226C30.3526 5.37 29.5626 4.66 28.3326 4.66C26.9126 4.66 25.8926 5.73 25.8926 7.42C25.8926 9.01 26.8626 10.21 28.4626 10.21C29.7926 10.21 30.6326 9.39 30.8326 8.16H28.3526V7.28H31.9926C32.0326 9.58 30.6226 11.15 28.4226 11.15ZM39.6913 10.04V11H35.1413V3.82H39.6213V4.78H36.2413V6.82H39.3213V7.78H36.2413V10.04H39.6913ZM48.801 11H47.781V5.12H46.471V4.24H48.801V11Z" fill="#DDC8AF"/>
<rect y="16" width="227" height="21.2998" rx="2.3" fill="#DDC8AF"/>
<path d="M13.53 32.1499H11.402V24.0159H8.238V22.0979H16.708V24.0159H13.53V32.1499ZM20.2685 22.9379C20.2685 23.5959 19.7365 24.0859 18.9665 24.0859C18.2105 24.0859 17.6785 23.5959 17.6785 22.9379C17.6785 22.2519 18.2105 21.7619 18.9665 21.7619C19.7365 21.7619 20.2685 22.2519 20.2685 22.9379ZM19.9605 32.1499H18.0145V24.6739H19.9605V32.1499ZM26.3402 30.2599V31.9539C25.8642 32.1919 25.4162 32.2899 24.8422 32.2899C23.3022 32.2899 22.3362 31.4079 22.3362 29.7279V26.3399H20.8242V24.6739H22.3362V22.4619H24.2682V24.6739H26.4102V26.3399H24.2682V29.2799C24.2682 30.1479 24.6602 30.4979 25.3602 30.4979C25.7242 30.4979 26.0602 30.4139 26.3402 30.2599ZM29.5585 32.1499H27.5985V22.0979H29.5585V32.1499ZM34.5515 32.2759C32.3115 32.2759 30.8135 30.7219 30.8135 28.3839C30.8135 26.1579 32.3675 24.5339 34.5235 24.5339C36.8895 24.5339 38.4575 26.4519 38.1075 28.8879H32.8015C32.9275 30.1059 33.5155 30.7779 34.5095 30.7779C35.3635 30.7779 35.9375 30.3579 36.1615 29.6159H38.0935C37.6735 31.3099 36.3715 32.2759 34.5515 32.2759ZM34.4815 25.9619C33.5715 25.9619 32.9975 26.5499 32.8295 27.6559H36.0495C35.9935 26.6199 35.4055 25.9619 34.4815 25.9619Z" fill="#FFFBE8"/>
<path d="M48 20.2998V32.9998" stroke="#FFFBE8" stroke-miterlimit="10" stroke-linecap="round"/>
<path opacity="0.3" d="M58.82 32.8119C58.8013 32.8026 58.764 32.7886 58.708 32.7699C58.652 32.7512 58.5913 32.7419 58.526 32.7419C58.414 32.7139 58.3207 32.6532 58.246 32.5599C58.1807 32.4666 58.148 32.3592 58.148 32.2379C58.148 32.1726 58.1527 32.1212 58.162 32.0839C58.19 32.0559 58.2133 31.9812 58.232 31.8599C58.26 31.7479 58.274 31.6452 58.274 31.5519C58.302 31.4959 58.3253 31.4399 58.344 31.3839C58.3627 31.3186 58.386 31.2299 58.414 31.1179C58.4887 30.7072 58.6613 30.0166 58.932 29.0459C59.2027 28.0752 59.3707 27.5572 59.436 27.4919V27.3379C59.436 27.3099 59.4453 27.2539 59.464 27.1699C59.4827 27.0859 59.5247 26.9972 59.59 26.9039C59.6273 26.7919 59.6553 26.6846 59.674 26.5819C59.702 26.4699 59.7207 26.3859 59.73 26.3299C59.7673 26.2832 59.828 26.1432 59.912 25.9099C60.0053 25.6766 60.066 25.5226 60.094 25.4479C60.1593 25.2706 60.2387 25.0652 60.332 24.8319C60.4347 24.5892 60.5047 24.4306 60.542 24.3559V24.2859C60.5607 24.2672 60.6073 24.1739 60.682 24.0059C60.766 23.8286 60.836 23.6792 60.892 23.5579C60.9573 23.4086 61.13 23.0212 61.41 22.3959C61.438 22.3306 61.48 22.2512 61.536 22.1579C61.6013 22.0552 61.634 21.9852 61.634 21.9479C61.6713 21.8826 61.7367 21.8499 61.83 21.8499C61.914 21.8499 61.998 21.8826 62.082 21.9479C62.1753 22.0039 62.2453 22.0786 62.292 22.1719L62.432 22.3959L61.928 23.4039C61.788 23.6466 61.6667 23.8799 61.564 24.1039C61.4613 24.3279 61.41 24.4586 61.41 24.4959C61.3727 24.5892 61.298 24.7806 61.186 25.0699C61.0833 25.3592 60.9993 25.6066 60.934 25.8119C60.8873 25.9519 60.8313 26.1012 60.766 26.2599C60.7007 26.4092 60.654 26.5166 60.626 26.5819C60.5513 26.7499 60.514 26.8432 60.514 26.8619C60.514 26.8246 61.074 26.8059 62.194 26.8059C62.3713 26.8059 62.684 26.8012 63.132 26.7919C63.5893 26.7826 63.874 26.7686 63.986 26.7499L64.714 26.6799L65.19 25.2379C65.2833 24.9112 65.4887 24.2766 65.806 23.3339C65.946 22.9326 66.058 22.6759 66.142 22.5639C66.226 22.4426 66.3287 22.3819 66.45 22.3819C66.4967 22.3819 66.562 22.4052 66.646 22.4519C66.7393 22.4892 66.8 22.5406 66.828 22.6059C66.9307 22.7086 66.982 22.8159 66.982 22.9279C66.982 23.0586 66.9073 23.2406 66.758 23.4739C66.646 23.6699 66.4873 24.0386 66.282 24.5799C66.198 24.8319 66.1467 24.9766 66.128 25.0139C66.128 25.2099 66.0813 25.3546 65.988 25.4479C65.9507 25.4852 65.8853 25.6206 65.792 25.8539C65.6987 26.0779 65.652 26.2086 65.652 26.2459C65.652 26.3206 65.638 26.4046 65.61 26.4979C65.582 26.5819 65.5493 26.6426 65.512 26.6799L65.414 27.0159C65.0873 28.2012 64.8307 29.0226 64.644 29.4799C64.644 29.5266 64.6207 29.6106 64.574 29.7319C64.5273 29.8532 64.504 29.9372 64.504 29.9839C64.4853 30.0492 64.4433 30.1799 64.378 30.3759C64.3127 30.5719 64.28 30.6886 64.28 30.7259C64.2613 30.8286 64.224 30.9919 64.168 31.2159C64.028 31.8506 63.958 32.1959 63.958 32.2519C63.9393 32.2706 63.9113 32.2799 63.874 32.2799C63.8367 32.2799 63.776 32.2659 63.692 32.2379C63.6173 32.2099 63.5613 32.1866 63.524 32.1679C63.3 32.0466 63.188 31.9066 63.188 31.7479C63.188 31.6452 63.23 31.5099 63.314 31.3419C63.342 31.2952 63.4307 30.9919 63.58 30.4319L63.706 29.9139C63.762 29.7646 63.888 29.3212 64.084 28.5839C64.2427 28.0146 64.3313 27.7206 64.35 27.7019V27.5619C64.322 27.5152 63.9813 27.4919 63.328 27.4919C62.5907 27.4919 61.914 27.5292 61.298 27.6039H60.64H60.276C60.2293 27.7066 60.0847 28.1406 59.842 28.9059C59.6087 29.6619 59.478 30.1379 59.45 30.3339C59.3847 30.6419 59.282 31.0712 59.142 31.6219C59.002 32.1632 58.8947 32.5599 58.82 32.8119ZM67.1147 31.4399C67.0027 31.4399 66.914 31.4212 66.8487 31.3839C66.7833 31.3466 66.69 31.2766 66.5687 31.1739C66.2607 30.8472 66.1067 30.5486 66.1067 30.2779C66.1067 30.2126 66.1113 30.1659 66.1207 30.1379C66.1487 30.0726 66.158 30.0072 66.1487 29.9419C66.1487 29.8766 66.1487 29.8346 66.1487 29.8159C66.1113 29.7786 66.0927 29.7552 66.0927 29.7459C66.0927 29.7272 66.102 29.7132 66.1207 29.7039C66.1393 29.6852 66.1533 29.6666 66.1627 29.6479C66.2187 29.6479 66.2373 29.5966 66.2187 29.4939C66.2 29.4192 66.2373 29.2559 66.3307 29.0039C66.424 28.7426 66.5407 28.5046 66.6807 28.2899C66.7833 28.1219 66.9327 27.9119 67.1287 27.6599C67.334 27.4079 67.516 27.2166 67.6747 27.0859C67.8987 26.8899 68.0993 26.7452 68.2767 26.6519C68.454 26.5586 68.65 26.4886 68.8647 26.4419C69.0513 26.3952 69.1773 26.3719 69.2427 26.3719C69.308 26.3719 69.364 26.3906 69.4107 26.4279C69.4667 26.4559 69.5367 26.5119 69.6207 26.5959C69.8727 26.7079 70.0453 26.8526 70.1387 27.0299C70.2413 27.1979 70.2927 27.4639 70.2927 27.8279C70.2927 28.4346 70.0453 29.0926 69.5507 29.8019C69.336 30.1099 69.1353 30.3479 68.9487 30.5159C68.762 30.6746 68.5147 30.8472 68.2067 31.0339C68.0107 31.1739 67.8287 31.2766 67.6607 31.3419C67.502 31.3979 67.32 31.4306 67.1147 31.4399ZM68.4587 29.9559C68.6827 29.7039 68.86 29.4659 68.9907 29.2419C69.1307 29.0179 69.2613 28.7332 69.3827 28.3879C69.4293 28.2292 69.4527 28.0379 69.4527 27.8139C69.4527 27.5339 69.4153 27.3752 69.3407 27.3379C69.2473 27.2912 69.154 27.2679 69.0607 27.2679C68.8553 27.2679 68.6407 27.3612 68.4167 27.5479C68.146 27.7812 67.9033 28.0706 67.6887 28.4159C67.474 28.7519 67.2547 29.1719 67.0307 29.6759C66.9373 29.8719 66.8907 30.0632 66.8907 30.2499C66.8907 30.3899 66.9233 30.5019 66.9887 30.5859C67.0633 30.6699 67.1613 30.7119 67.2827 30.7119C67.5907 30.7119 67.9827 30.4599 68.4587 29.9559ZM71.8855 31.0199C71.6895 31.0199 71.5215 30.8659 71.3815 30.5579C71.2508 30.2499 71.1855 29.8906 71.1855 29.4799L71.1995 29.2279C71.1995 28.8919 71.2228 28.6119 71.2695 28.3879C71.3162 28.1639 71.3442 28.0239 71.3535 27.9679C71.3722 27.9212 71.3908 27.8419 71.4095 27.7299C71.4282 27.6086 71.4655 27.4406 71.5215 27.2259C71.5962 26.8992 71.6708 26.6986 71.7455 26.6239C71.8202 26.5492 71.9088 26.5119 72.0115 26.5119C72.0768 26.5119 72.1375 26.5306 72.1935 26.5679C72.2495 26.5959 72.2962 26.6379 72.3335 26.6939C72.3895 26.7499 72.4175 26.8852 72.4175 27.0999C72.4175 27.2586 72.4035 27.4126 72.3755 27.5619C72.3475 27.7112 72.3102 27.8186 72.2635 27.8839C72.2355 27.9399 72.1935 28.2106 72.1375 28.6959C72.1002 29.0506 72.0722 29.2792 72.0535 29.3819C72.0442 29.4192 72.0395 29.4752 72.0395 29.5499C72.0395 29.7646 72.1048 29.8719 72.2355 29.8719C72.4502 29.8719 72.7535 29.5872 73.1455 29.0179C73.4068 28.6446 73.5888 28.3552 73.6915 28.1499C73.8035 27.9352 73.9155 27.6646 74.0275 27.3379C74.0742 27.1979 74.1162 27.0766 74.1535 26.9739C74.2002 26.8712 74.2422 26.8059 74.2795 26.7779C74.3262 26.7406 74.3915 26.7219 74.4755 26.7219C74.5688 26.7219 74.6808 26.7639 74.8115 26.8479C74.9235 26.9599 74.9795 27.0906 74.9795 27.2399C74.9795 27.3986 74.9235 27.5899 74.8115 27.8139C74.6995 28.0379 74.5968 28.3506 74.5035 28.7519C74.4102 29.1439 74.3635 29.4519 74.3635 29.6759C74.3635 29.8439 74.3822 29.9512 74.4195 29.9979C74.4662 30.0352 74.5362 30.0539 74.6295 30.0539C74.8908 30.0539 75.2035 29.8672 75.5675 29.4939C75.7355 29.3259 75.9548 29.0319 76.2255 28.6119C76.5055 28.1826 76.6455 27.9306 76.6455 27.8559C76.6455 27.7999 76.6875 27.7206 76.7715 27.6179C76.8182 27.5526 76.8602 27.4966 76.8975 27.4499C76.9442 27.4032 77.0095 27.3566 77.0935 27.3099L77.2055 27.2819C77.2802 27.2819 77.3688 27.3332 77.4715 27.4359C77.5088 27.4732 77.5322 27.5339 77.5415 27.6179C77.5508 27.6926 77.5555 27.7812 77.5555 27.8839C77.5088 28.0519 77.4295 28.2712 77.3175 28.5419C77.2055 28.8032 77.1168 28.9712 77.0515 29.0459C76.8742 29.1859 76.7248 29.3586 76.6035 29.5639C76.3795 29.8346 76.2022 30.0259 76.0715 30.1379C75.9502 30.2406 75.8708 30.3106 75.8335 30.3479C75.6468 30.5346 75.4415 30.6792 75.2175 30.7819C75.0028 30.8846 74.7975 30.9359 74.6015 30.9359C74.4055 30.9359 74.2468 30.8892 74.1255 30.7959C73.8362 30.6466 73.6915 30.3946 73.6915 30.0399C73.6915 29.9746 73.6822 29.9139 73.6635 29.8579C73.6448 29.8019 73.6308 29.7646 73.6215 29.7459C73.4815 29.7459 73.3695 29.8206 73.2855 29.9699C73.1548 30.2032 72.9308 30.4366 72.6135 30.6699C72.2962 30.9032 72.0535 31.0199 71.8855 31.0199ZM82.9005 31.6219C82.7699 31.5846 82.6625 31.5426 82.5785 31.4959C82.4945 31.4492 82.3825 31.3606 82.2425 31.2299C82.0745 31.0059 81.9625 30.8006 81.9065 30.6139C81.8599 30.4179 81.8365 30.1099 81.8365 29.6899C81.8365 29.4659 81.9625 28.8499 82.2145 27.8419C82.1959 27.9072 82.2285 27.7719 82.3125 27.4359C82.3405 27.3332 82.3032 27.2679 82.2005 27.2399C82.0979 27.2119 81.9532 27.1979 81.7665 27.1979C81.6079 27.1979 81.5145 27.1886 81.4865 27.1699C81.4585 27.1606 81.4399 27.1466 81.4305 27.1279C81.4305 27.1092 81.4305 27.0952 81.4305 27.0859C81.4305 27.0392 81.4119 26.9832 81.3745 26.9179C81.3652 26.9086 81.3605 26.8946 81.3605 26.8759C81.3605 26.8292 81.3839 26.7779 81.4305 26.7219C81.4865 26.6659 81.5519 26.6332 81.6265 26.6239C81.6732 26.6146 81.7805 26.6006 81.9485 26.5819C82.1165 26.5632 82.2752 26.5259 82.4245 26.4699C82.5739 26.4139 82.6905 26.3346 82.7745 26.2319C82.8959 25.9239 83.0499 25.5786 83.2365 25.1959C83.4232 24.8039 83.5492 24.5706 83.6145 24.4959C83.7639 24.4212 83.8665 24.3839 83.9225 24.3839C83.9785 24.3839 84.0252 24.4026 84.0625 24.4399C84.0999 24.4772 84.1512 24.5426 84.2165 24.6359C84.2259 24.6546 84.2492 24.6872 84.2865 24.7339C84.3239 24.7806 84.3425 24.8272 84.3425 24.8739C84.3425 24.9486 84.3052 25.0606 84.2305 25.2099C84.1652 25.3592 84.0299 25.6206 83.8245 25.9939L83.6425 26.3439C83.6705 26.3532 83.7359 26.3579 83.8385 26.3579C83.9412 26.3579 84.0252 26.3532 84.0905 26.3439C84.2959 26.3066 84.4872 26.2879 84.6645 26.2879C84.7579 26.2879 84.8232 26.2926 84.8605 26.3019C85.0752 26.3019 85.2292 26.3439 85.3225 26.4279C85.4252 26.5026 85.4859 26.6332 85.5045 26.8199C85.5232 26.9226 85.5045 26.9832 85.4485 27.0019C85.3925 27.0206 85.2339 27.0299 84.9725 27.0299C83.8899 27.0766 83.3439 27.1186 83.3345 27.1559C83.2972 27.1839 83.2272 27.3472 83.1245 27.6459C83.0219 27.9446 82.9332 28.2292 82.8585 28.4999C82.7372 29.0599 82.6765 29.5546 82.6765 29.9839C82.6765 30.3759 82.7325 30.6372 82.8445 30.7679C82.8912 30.8146 82.9799 30.8379 83.1105 30.8379C83.2412 30.8379 83.3812 30.8146 83.5305 30.7679C83.6892 30.7119 83.8199 30.6419 83.9225 30.5579C84.0905 30.4179 84.2305 30.3479 84.3425 30.3479C84.3985 30.3479 84.4405 30.3666 84.4685 30.4039C84.5059 30.4319 84.5245 30.4692 84.5245 30.5159C84.5245 30.6186 84.4685 30.7492 84.3565 30.9079C84.2165 31.1226 84.0299 31.2999 83.7965 31.4399C83.5632 31.5799 83.3392 31.6499 83.1245 31.6499C83.0219 31.6499 82.9472 31.6406 82.9005 31.6219ZM87.1153 31.1179C86.9753 31.1459 86.8726 31.1599 86.8073 31.1599C86.7513 31.1599 86.7046 31.1506 86.6673 31.1319C86.63 31.1039 86.5786 31.0572 86.5133 30.9919C86.308 30.8892 86.1446 30.7446 86.0233 30.5579C85.9113 30.3619 85.8646 30.1892 85.8833 30.0399C85.9206 29.6106 86.042 29.1392 86.2473 28.6259C86.462 28.1126 86.714 27.6599 87.0033 27.2679C87.2926 26.8759 87.5726 26.6332 87.8433 26.5399C88.0113 26.4746 88.1513 26.4419 88.2633 26.4419C88.4873 26.4419 88.646 26.5352 88.7393 26.7219C88.8046 26.8526 88.8373 26.9506 88.8373 27.0159C88.8373 27.1279 88.772 27.2026 88.6413 27.2399C88.6133 27.2399 88.5806 27.2539 88.5433 27.2819C88.506 27.3099 88.4873 27.3379 88.4873 27.3659C88.4966 27.3752 88.5386 27.3799 88.6133 27.3799C88.772 27.3799 88.968 27.3566 89.2013 27.3099C89.4346 27.2632 89.584 27.2119 89.6493 27.1559C89.7053 27.1279 89.752 27.1139 89.7893 27.1139L89.9853 27.1419C90.144 27.1886 90.2233 27.2446 90.2233 27.3099C90.2233 27.3472 90.2373 27.3846 90.2653 27.4219C90.2933 27.4499 90.326 27.4639 90.3633 27.4639C90.4193 27.4732 90.41 27.5106 90.3353 27.5759C90.27 27.6412 90.1393 27.7486 89.9433 27.8979C89.8966 27.9259 89.8266 27.9679 89.7333 28.0239C89.6493 28.0799 89.598 28.1266 89.5793 28.1639C89.57 28.2012 89.5746 28.2526 89.5933 28.3179C89.6306 28.4019 89.6493 28.5046 89.6493 28.6259C89.6493 28.9339 89.514 29.2746 89.2433 29.6479C88.982 30.0212 88.6506 30.3479 88.2493 30.6279C87.8573 30.9079 87.4793 31.0712 87.1153 31.1179ZM86.8773 30.5019C86.9333 30.5019 87.0733 30.4459 87.2973 30.3339C87.4186 30.2126 87.5166 30.1379 87.5913 30.1099C87.6566 30.1099 87.7453 30.0632 87.8573 29.9699C87.9693 29.8672 88.142 29.6666 88.3753 29.3679C88.5526 29.1626 88.6833 28.9899 88.7673 28.8499C88.8606 28.7099 88.9073 28.5746 88.9073 28.4439C88.9073 28.3879 88.9026 28.3459 88.8933 28.3179C88.884 28.2899 88.8513 28.2666 88.7953 28.2479C88.7486 28.2199 88.702 28.1966 88.6553 28.1779C88.5713 28.1779 88.492 28.1592 88.4173 28.1219C88.352 28.0752 88.254 28.0006 88.1233 27.8979L87.8993 27.6179L87.6613 27.8559C87.4373 28.0799 87.2086 28.4486 86.9753 28.9619C86.742 29.4659 86.6113 29.8579 86.5833 30.1379C86.574 30.2686 86.5926 30.3619 86.6393 30.4179C86.6953 30.4646 86.7746 30.4926 86.8773 30.5019ZM95.4135 34.3239C95.2735 34.3799 95.1242 34.4079 94.9655 34.4079C94.7415 34.4079 94.5128 34.3566 94.2795 34.2539C94.0555 34.1512 93.8548 34.0112 93.6775 33.8339C93.5748 33.7406 93.4768 33.5726 93.3835 33.3299C93.2902 33.0966 93.2715 32.9659 93.3275 32.9379C93.3648 32.9192 93.4022 32.9099 93.4395 32.9099C93.5142 32.9099 93.5842 32.9239 93.6495 32.9519C93.7242 32.9799 93.7615 33.0126 93.7615 33.0499C93.8362 33.1152 93.9388 33.1946 94.0695 33.2879C94.2095 33.3812 94.3122 33.4326 94.3775 33.4419C94.5455 33.4979 94.6762 33.5259 94.7695 33.5259C94.8722 33.5259 94.9702 33.4932 95.0635 33.4279C95.2035 33.3066 95.3155 33.1526 95.3995 32.9659C95.4928 32.7886 95.5862 32.5272 95.6795 32.1819L95.7215 31.9999C95.9642 30.9079 96.1275 30.2312 96.2115 29.9699C96.2488 29.8206 96.2675 29.6992 96.2675 29.6059C96.2675 29.5312 96.2535 29.4939 96.2255 29.4939C96.2068 29.4939 96.1742 29.5219 96.1275 29.5779C96.0435 29.6059 95.9268 29.6572 95.7775 29.7319C95.4602 29.8906 95.2548 29.9792 95.1615 29.9979L94.8535 30.0119C94.8162 30.0306 94.7742 30.0399 94.7275 30.0399C94.6248 30.0399 94.4988 30.0119 94.3495 29.9559C94.2002 29.8906 94.0648 29.8112 93.9435 29.7179C93.8128 29.5499 93.7335 29.4332 93.7055 29.3679C93.6868 29.3026 93.6775 29.1579 93.6775 28.9339C93.6682 28.7846 93.7382 28.5699 93.8875 28.2899C94.0462 28.0006 94.2375 27.7299 94.4615 27.4779C94.7508 27.1886 95.1288 26.9179 95.5955 26.6659C96.0622 26.4139 96.4308 26.2926 96.7015 26.3019C96.7388 26.3112 96.8088 26.3206 96.9115 26.3299C97.0235 26.3392 97.1355 26.3859 97.2475 26.4699C97.3688 26.5352 97.4575 26.6052 97.5135 26.6799C97.5695 26.7546 97.6488 26.8992 97.7515 27.1139C97.8635 27.4032 97.9195 27.6879 97.9195 27.9679C97.9195 28.2572 97.8495 28.4719 97.7095 28.6119C97.6815 28.6119 97.6395 28.6212 97.5835 28.6399C97.5275 28.6586 97.4808 28.6679 97.4435 28.6679C97.4155 28.6679 97.3782 28.7006 97.3315 28.7659C97.2942 28.8312 97.2708 28.9059 97.2615 28.9899C97.2428 29.1112 97.2148 29.2186 97.1775 29.3119C97.1308 29.4239 97.1075 29.4892 97.1075 29.5079C97.1075 29.5359 97.0982 29.5639 97.0795 29.5919C97.0702 29.6106 97.0608 29.6292 97.0515 29.6479C96.9768 29.7786 96.9395 29.9092 96.9395 30.0399L96.8835 30.1939C96.8088 30.4366 96.7715 30.5672 96.7715 30.5859L96.7155 30.8659C96.6968 30.9126 96.6688 30.9919 96.6315 31.1039C96.5942 31.2066 96.5568 31.4166 96.5195 31.7339C96.1742 33.2086 95.8055 34.0719 95.4135 34.3239ZM94.4475 29.2419C94.5875 29.2979 94.7275 29.3259 94.8675 29.3259C95.2222 29.3259 95.6328 29.1392 96.0995 28.7659C96.5382 28.4392 96.8228 28.0379 96.9535 27.5619C96.9908 27.4779 97.0095 27.3986 97.0095 27.3239C97.0095 27.2212 96.9442 27.1652 96.8135 27.1559C96.7855 27.1466 96.7388 27.1419 96.6735 27.1419C96.3468 27.1419 95.9455 27.2959 95.4695 27.6039C95.4135 27.6879 95.3342 27.7672 95.2315 27.8419C95.1382 27.9072 95.0775 27.9492 95.0495 27.9679C95.0308 28.0239 94.9935 28.0706 94.9375 28.1079C94.7882 28.2292 94.6528 28.4346 94.5315 28.7239C94.4102 29.0132 94.3822 29.1859 94.4475 29.2419ZM99.508 31.3139C99.2094 31.1926 98.9994 31.0386 98.878 30.8519C98.7567 30.6559 98.696 30.3852 98.696 30.0399C98.696 29.8719 98.71 29.6759 98.738 29.4519L98.766 28.9479C98.766 28.8639 98.7567 28.7986 98.738 28.7519C98.7194 28.7052 98.6774 28.6539 98.612 28.5979C98.5934 28.5792 98.5467 28.5326 98.472 28.4579C98.3974 28.3832 98.3647 28.3226 98.374 28.2759L98.36 28.2059C98.36 28.1406 98.3694 28.0799 98.388 28.0239C98.416 27.9679 98.444 27.9399 98.472 27.9399C98.5 27.9399 98.5374 27.9352 98.584 27.9259C98.6307 27.9072 98.6727 27.9026 98.71 27.9119C98.8407 27.9119 98.906 27.9399 98.906 27.9959C98.9434 28.0706 99.004 28.0799 99.088 28.0239C99.1814 27.9586 99.27 27.8372 99.354 27.6599C99.4847 27.4546 99.676 27.2399 99.928 27.0159C100.189 26.7826 100.404 26.6192 100.572 26.5259C100.637 26.4886 100.745 26.4559 100.894 26.4279C101.043 26.3906 101.174 26.3719 101.286 26.3719C101.454 26.3719 101.599 26.4092 101.72 26.4839C101.851 26.5586 101.981 26.6659 102.112 26.8059C102.289 26.9366 102.378 27.1419 102.378 27.4219C102.378 27.6179 102.331 27.8186 102.238 28.0239C102.201 28.1639 102.051 28.3412 101.79 28.5559C101.538 28.7706 101.305 28.9199 101.09 29.0039C100.829 29.0692 100.53 29.1019 100.194 29.1019C99.97 29.1019 99.8254 29.0832 99.76 29.0459C99.648 28.9806 99.5687 29.2326 99.522 29.8019C99.5127 29.8672 99.508 29.9559 99.508 30.0679C99.508 30.2266 99.5314 30.3526 99.578 30.4459C99.5874 30.4552 99.62 30.4926 99.676 30.5579C99.732 30.6139 99.802 30.6652 99.886 30.7119C99.97 30.7492 100.059 30.7679 100.152 30.7679C100.236 30.7679 100.301 30.7586 100.348 30.7399C100.451 30.7119 100.549 30.6606 100.642 30.5859C100.735 30.5019 100.866 30.3759 101.034 30.2079C101.183 30.0586 101.291 29.9559 101.356 29.8999C101.403 29.8159 101.496 29.7739 101.636 29.7739C101.673 29.7739 101.739 29.7832 101.832 29.8019C101.916 29.8672 101.958 29.9372 101.958 30.0119C101.958 30.0866 101.911 30.2266 101.818 30.4319C101.771 30.5252 101.655 30.6559 101.468 30.8239C101.291 30.9826 101.132 31.1086 100.992 31.2019C100.703 31.3606 100.413 31.4399 100.124 31.4399C99.9467 31.4399 99.7414 31.3979 99.508 31.3139ZM100.334 28.4719C100.427 28.4532 100.563 28.4299 100.74 28.4019C100.917 28.3739 101.062 28.3132 101.174 28.2199C101.295 28.1172 101.435 27.9446 101.594 27.7019C101.622 27.6272 101.636 27.5526 101.636 27.4779C101.636 27.3379 101.608 27.2399 101.552 27.1839C101.487 27.1186 101.412 27.0859 101.328 27.0859C101.197 27.0859 101.062 27.1419 100.922 27.2539C100.829 27.2819 100.689 27.3846 100.502 27.5619C100.325 27.7392 100.171 27.9166 100.04 28.0939C99.9094 28.2619 99.8674 28.3599 99.914 28.3879C99.8954 28.4159 99.942 28.4392 100.054 28.4579C100.166 28.4672 100.259 28.4719 100.334 28.4719ZM104.047 31.5519C103.897 31.5239 103.743 31.4259 103.585 31.2579C103.435 31.0806 103.337 30.9172 103.291 30.7679C103.291 30.7492 103.281 30.7306 103.263 30.7119C103.244 30.6839 103.23 30.6652 103.221 30.6559C103.183 30.6279 103.165 30.4739 103.165 30.1939C103.165 29.9699 103.174 29.7366 103.193 29.4939C103.221 29.2512 103.253 29.0552 103.291 28.9059L103.543 28.1639L103.739 27.6039L104.117 26.7919L103.557 26.6379C103.491 26.6286 103.435 26.5959 103.389 26.5399C103.351 26.4839 103.333 26.4326 103.333 26.3859C103.333 26.3112 103.37 26.2226 103.445 26.1199C103.529 26.0079 103.594 25.9519 103.641 25.9519C103.669 25.9612 103.743 25.9659 103.865 25.9659C104.145 25.9659 104.355 25.9519 104.495 25.9239C104.588 25.8866 104.653 25.8119 104.691 25.6999C104.728 25.6252 104.77 25.5319 104.817 25.4199C104.873 25.3079 104.924 25.2052 104.971 25.1119C104.999 25.0559 105.041 24.9719 105.097 24.8599C105.162 24.7386 105.241 24.6032 105.335 24.4539C105.353 24.4259 105.395 24.3606 105.461 24.2579C105.526 24.1459 105.605 24.0526 105.699 23.9779C105.764 23.9126 105.843 23.8799 105.937 23.8799C106.03 23.8799 106.151 23.9406 106.301 24.0619C106.319 24.0899 106.343 24.1272 106.371 24.1739C106.408 24.2206 106.427 24.2626 106.427 24.2999C106.427 24.3372 106.389 24.4166 106.315 24.5379C106.259 24.6499 106.203 24.7526 106.147 24.8459C106.1 24.9299 106.058 25.0046 106.021 25.0699C105.909 25.2566 105.829 25.3966 105.783 25.4899C105.689 25.6112 105.643 25.7046 105.643 25.7699C105.643 25.8352 105.703 25.8679 105.825 25.8679C105.955 25.8679 106.175 25.8399 106.483 25.7839C106.613 25.7652 106.702 25.7559 106.749 25.7559C107.075 25.7559 107.253 25.8912 107.281 26.1619C107.29 26.2179 107.295 26.2832 107.295 26.3579C107.295 26.4886 107.248 26.5679 107.155 26.5959C107.071 26.6239 106.875 26.6379 106.567 26.6379C106.268 26.6846 105.96 26.7079 105.643 26.7079C105.587 26.7079 105.521 26.7126 105.447 26.7219C105.381 26.7219 105.311 26.7312 105.237 26.7499C105.162 26.7686 105.106 26.7966 105.069 26.8339C105.041 26.8712 105.008 26.9319 104.971 27.0159C104.943 27.0439 104.877 27.1512 104.775 27.3379C104.644 27.6086 104.56 27.7719 104.523 27.8279C104.271 28.5746 104.084 29.3399 103.963 30.1239C103.944 30.2732 103.935 30.3666 103.935 30.4039C103.935 30.5439 103.981 30.6419 104.075 30.6979C104.168 30.7539 104.327 30.7819 104.551 30.7819C104.868 30.7819 105.143 30.7492 105.377 30.6839C105.657 30.5626 105.867 30.4599 106.007 30.3759C106.091 30.3292 106.165 30.2872 106.231 30.2499C106.305 30.2032 106.357 30.1706 106.385 30.1519C106.413 30.0959 106.445 30.0679 106.483 30.0679C106.557 30.0679 106.623 30.1426 106.679 30.2919C106.679 30.4412 106.646 30.5719 106.581 30.6839C106.515 30.7959 106.352 30.9266 106.091 31.0759C105.549 31.4212 105.008 31.5939 104.467 31.5939C104.317 31.5939 104.177 31.5799 104.047 31.5519ZM112.436 31.6219C112.306 31.5846 112.198 31.5426 112.114 31.4959C112.03 31.4492 111.918 31.3606 111.778 31.2299C111.61 31.0059 111.498 30.8006 111.442 30.6139C111.396 30.4179 111.372 30.1099 111.372 29.6899C111.372 29.4659 111.498 28.8499 111.75 27.8419C111.732 27.9072 111.764 27.7719 111.848 27.4359C111.876 27.3332 111.839 27.2679 111.736 27.2399C111.634 27.2119 111.489 27.1979 111.302 27.1979C111.144 27.1979 111.05 27.1886 111.022 27.1699C110.994 27.1606 110.976 27.1466 110.966 27.1279C110.966 27.1092 110.966 27.0952 110.966 27.0859C110.966 27.0392 110.948 26.9832 110.91 26.9179C110.901 26.9086 110.896 26.8946 110.896 26.8759C110.896 26.8292 110.92 26.7779 110.966 26.7219C111.022 26.6659 111.088 26.6332 111.162 26.6239C111.209 26.6146 111.316 26.6006 111.484 26.5819C111.652 26.5632 111.811 26.5259 111.96 26.4699C112.11 26.4139 112.226 26.3346 112.31 26.2319C112.432 25.9239 112.586 25.5786 112.772 25.1959C112.959 24.8039 113.085 24.5706 113.15 24.4959C113.3 24.4212 113.402 24.3839 113.458 24.3839C113.514 24.3839 113.561 24.4026 113.598 24.4399C113.636 24.4772 113.687 24.5426 113.752 24.6359C113.762 24.6546 113.785 24.6872 113.822 24.7339C113.86 24.7806 113.878 24.8272 113.878 24.8739C113.878 24.9486 113.841 25.0606 113.766 25.2099C113.701 25.3592 113.566 25.6206 113.36 25.9939L113.178 26.3439C113.206 26.3532 113.272 26.3579 113.374 26.3579C113.477 26.3579 113.561 26.3532 113.626 26.3439C113.832 26.3066 114.023 26.2879 114.2 26.2879C114.294 26.2879 114.359 26.2926 114.396 26.3019C114.611 26.3019 114.765 26.3439 114.858 26.4279C114.961 26.5026 115.022 26.6332 115.04 26.8199C115.059 26.9226 115.04 26.9832 114.984 27.0019C114.928 27.0206 114.77 27.0299 114.508 27.0299C113.426 27.0766 112.88 27.1186 112.87 27.1559C112.833 27.1839 112.763 27.3472 112.66 27.6459C112.558 27.9446 112.469 28.2292 112.394 28.4999C112.273 29.0599 112.212 29.5546 112.212 29.9839C112.212 30.3759 112.268 30.6372 112.38 30.7679C112.427 30.8146 112.516 30.8379 112.646 30.8379C112.777 30.8379 112.917 30.8146 113.066 30.7679C113.225 30.7119 113.356 30.6419 113.458 30.5579C113.626 30.4179 113.766 30.3479 113.878 30.3479C113.934 30.3479 113.976 30.3666 114.004 30.4039C114.042 30.4319 114.06 30.4692 114.06 30.5159C114.06 30.6186 114.004 30.7492 113.892 30.9079C113.752 31.1226 113.566 31.2999 113.332 31.4399C113.099 31.5799 112.875 31.6499 112.66 31.6499C112.558 31.6499 112.483 31.6406 112.436 31.6219ZM116.147 31.4399C116.035 31.4399 115.946 31.4212 115.881 31.3839C115.816 31.3466 115.722 31.2766 115.601 31.1739C115.293 30.8472 115.139 30.5486 115.139 30.2779C115.139 30.2126 115.144 30.1659 115.153 30.1379C115.181 30.0726 115.19 30.0072 115.181 29.9419C115.181 29.8766 115.181 29.8346 115.181 29.8159C115.144 29.7786 115.125 29.7552 115.125 29.7459C115.125 29.7272 115.134 29.7132 115.153 29.7039C115.172 29.6852 115.186 29.6666 115.195 29.6479C115.251 29.6479 115.27 29.5966 115.251 29.4939C115.232 29.4192 115.27 29.2559 115.363 29.0039C115.456 28.7426 115.573 28.5046 115.713 28.2899C115.816 28.1219 115.965 27.9119 116.161 27.6599C116.366 27.4079 116.548 27.2166 116.707 27.0859C116.931 26.8899 117.132 26.7452 117.309 26.6519C117.486 26.5586 117.682 26.4886 117.897 26.4419C118.084 26.3952 118.21 26.3719 118.275 26.3719C118.34 26.3719 118.396 26.3906 118.443 26.4279C118.499 26.4559 118.569 26.5119 118.653 26.5959C118.905 26.7079 119.078 26.8526 119.171 27.0299C119.274 27.1979 119.325 27.4639 119.325 27.8279C119.325 28.4346 119.078 29.0926 118.583 29.8019C118.368 30.1099 118.168 30.3479 117.981 30.5159C117.794 30.6746 117.547 30.8472 117.239 31.0339C117.043 31.1739 116.861 31.2766 116.693 31.3419C116.534 31.3979 116.352 31.4306 116.147 31.4399ZM117.491 29.9559C117.715 29.7039 117.892 29.4659 118.023 29.2419C118.163 29.0179 118.294 28.7332 118.415 28.3879C118.462 28.2292 118.485 28.0379 118.485 27.8139C118.485 27.5339 118.448 27.3752 118.373 27.3379C118.28 27.2912 118.186 27.2679 118.093 27.2679C117.888 27.2679 117.673 27.3612 117.449 27.5479C117.178 27.7812 116.936 28.0706 116.721 28.4159C116.506 28.7519 116.287 29.1719 116.063 29.6759C115.97 29.8719 115.923 30.0632 115.923 30.2499C115.923 30.3899 115.956 30.5019 116.021 30.5859C116.096 30.6699 116.194 30.7119 116.315 30.7119C116.623 30.7119 117.015 30.4599 117.491 29.9559ZM123.647 32.8119C123.628 32.8026 123.591 32.7886 123.535 32.7699C123.479 32.7512 123.418 32.7419 123.353 32.7419C123.241 32.7139 123.148 32.6532 123.073 32.5599C123.008 32.4666 122.975 32.3592 122.975 32.2379C122.975 32.1726 122.98 32.1212 122.989 32.0839C123.017 32.0559 123.04 31.9812 123.059 31.8599C123.087 31.7479 123.101 31.6452 123.101 31.5519C123.129 31.4959 123.152 31.4399 123.171 31.3839C123.19 31.3186 123.213 31.2299 123.241 31.1179C123.316 30.7072 123.488 30.0166 123.759 29.0459C124.03 28.0752 124.198 27.5572 124.263 27.4919V27.3379C124.263 27.3099 124.272 27.2539 124.291 27.1699C124.31 27.0859 124.352 26.9972 124.417 26.9039C124.454 26.7919 124.482 26.6846 124.501 26.5819C124.529 26.4699 124.548 26.3859 124.557 26.3299C124.594 26.2832 124.655 26.1432 124.739 25.9099C124.832 25.6766 124.893 25.5226 124.921 25.4479C124.986 25.2706 125.066 25.0652 125.159 24.8319C125.262 24.5892 125.332 24.4306 125.369 24.3559V24.2859C125.388 24.2672 125.434 24.1739 125.509 24.0059C125.593 23.8286 125.663 23.6792 125.719 23.5579C125.784 23.4086 125.957 23.0212 126.237 22.3959C126.265 22.3306 126.307 22.2512 126.363 22.1579C126.428 22.0552 126.461 21.9852 126.461 21.9479C126.498 21.8826 126.564 21.8499 126.657 21.8499C126.741 21.8499 126.825 21.8826 126.909 21.9479C127.002 22.0039 127.072 22.0786 127.119 22.1719L127.259 22.3959L126.755 23.4039C126.615 23.6466 126.494 23.8799 126.391 24.1039C126.288 24.3279 126.237 24.4586 126.237 24.4959C126.2 24.5892 126.125 24.7806 126.013 25.0699C125.91 25.3592 125.826 25.6066 125.761 25.8119C125.714 25.9519 125.658 26.1012 125.593 26.2599C125.528 26.4092 125.481 26.5166 125.453 26.5819C125.378 26.7499 125.341 26.8432 125.341 26.8619C125.341 26.8246 125.901 26.8059 127.021 26.8059C127.198 26.8059 127.511 26.8012 127.959 26.7919C128.416 26.7826 128.701 26.7686 128.813 26.7499L129.541 26.6799L130.017 25.2379C130.11 24.9112 130.316 24.2766 130.633 23.3339C130.773 22.9326 130.885 22.6759 130.969 22.5639C131.053 22.4426 131.156 22.3819 131.277 22.3819C131.324 22.3819 131.389 22.4052 131.473 22.4519C131.566 22.4892 131.627 22.5406 131.655 22.6059C131.758 22.7086 131.809 22.8159 131.809 22.9279C131.809 23.0586 131.734 23.2406 131.585 23.4739C131.473 23.6699 131.314 24.0386 131.109 24.5799C131.025 24.8319 130.974 24.9766 130.955 25.0139C130.955 25.2099 130.908 25.3546 130.815 25.4479C130.778 25.4852 130.712 25.6206 130.619 25.8539C130.526 26.0779 130.479 26.2086 130.479 26.2459C130.479 26.3206 130.465 26.4046 130.437 26.4979C130.409 26.5819 130.376 26.6426 130.339 26.6799L130.241 27.0159C129.914 28.2012 129.658 29.0226 129.471 29.4799C129.471 29.5266 129.448 29.6106 129.401 29.7319C129.354 29.8532 129.331 29.9372 129.331 29.9839C129.312 30.0492 129.27 30.1799 129.205 30.3759C129.14 30.5719 129.107 30.6886 129.107 30.7259C129.088 30.8286 129.051 30.9919 128.995 31.2159C128.855 31.8506 128.785 32.1959 128.785 32.2519C128.766 32.2706 128.738 32.2799 128.701 32.2799C128.664 32.2799 128.603 32.2659 128.519 32.2379C128.444 32.2099 128.388 32.1866 128.351 32.1679C128.127 32.0466 128.015 31.9066 128.015 31.7479C128.015 31.6452 128.057 31.5099 128.141 31.3419C128.169 31.2952 128.258 30.9919 128.407 30.4319L128.533 29.9139C128.589 29.7646 128.715 29.3212 128.911 28.5839C129.07 28.0146 129.158 27.7206 129.177 27.7019V27.5619C129.149 27.5152 128.808 27.4919 128.155 27.4919C127.418 27.4919 126.741 27.5292 126.125 27.6039H125.467H125.103C125.056 27.7066 124.912 28.1406 124.669 28.9059C124.436 29.6619 124.305 30.1379 124.277 30.3339C124.212 30.6419 124.109 31.0712 123.969 31.6219C123.829 32.1632 123.722 32.5599 123.647 32.8119ZM131.508 32.9379C131.489 32.9286 131.452 32.9146 131.396 32.8959C131.34 32.8772 131.279 32.8726 131.214 32.8819C131.092 32.8632 130.994 32.8026 130.92 32.6999C130.845 32.5972 130.808 32.4852 130.808 32.3639C130.808 32.3079 130.812 32.2659 130.822 32.2379C130.85 32.2099 130.873 32.1352 130.892 32.0139C130.91 31.9019 130.92 31.7992 130.92 31.7059C130.957 31.6032 130.999 31.4539 131.046 31.2579C131.102 30.8379 131.246 30.1426 131.48 29.1719C131.722 28.1919 131.876 27.6692 131.942 27.6039L131.928 27.4499C131.928 27.4219 131.937 27.3659 131.956 27.2819C131.974 27.1979 132.012 27.1046 132.068 27.0019C132.105 26.8899 132.133 26.7826 132.152 26.6799C132.18 26.5679 132.194 26.4839 132.194 26.4279C132.212 26.3999 132.278 26.2319 132.39 25.9239L132.53 25.5319C132.586 25.3546 132.66 25.1446 132.754 24.9019C132.847 24.6592 132.908 24.5006 132.936 24.4259V24.3559C132.973 24.3092 133.076 24.0619 133.244 23.6139C133.328 23.4272 133.407 23.2359 133.482 23.0399C133.566 22.8346 133.65 22.6339 133.734 22.4379C133.762 22.3819 133.804 22.3026 133.86 22.1999C133.916 22.0972 133.944 22.0272 133.944 21.9899C133.981 21.9152 134.051 21.8779 134.154 21.8779C134.238 21.8779 134.322 21.9059 134.406 21.9619C134.49 22.0179 134.555 22.0926 134.602 22.1859L134.756 22.4099L134.28 23.4319C134.158 23.6746 134.046 23.9126 133.944 24.1459C133.85 24.3699 133.804 24.5006 133.804 24.5379C133.776 24.6312 133.71 24.8226 133.608 25.1119C133.505 25.4012 133.426 25.6532 133.37 25.8679C133.295 26.1012 133.211 26.3346 133.118 26.5679C133.034 26.7919 132.992 26.9132 132.992 26.9319C132.992 26.8946 133.524 26.8572 134.588 26.8199C134.765 26.8106 135.092 26.7966 135.568 26.7779C136.053 26.7499 136.352 26.7219 136.464 26.6939L137.178 26.6099L137.612 25.1539C137.724 24.6966 137.906 24.0526 138.158 23.2219C138.279 22.8112 138.382 22.5499 138.466 22.4379C138.55 22.3166 138.652 22.2559 138.774 22.2559H138.788C138.844 22.2559 138.909 22.2746 138.984 22.3119C139.068 22.3492 139.124 22.4006 139.152 22.4659C139.264 22.5592 139.32 22.6666 139.32 22.7879C139.32 22.9092 139.25 23.0912 139.11 23.3339C138.988 23.5579 138.844 23.9312 138.676 24.4539C138.648 24.5752 138.601 24.7199 138.536 24.8879V24.9439C138.536 25.1212 138.494 25.2519 138.41 25.3359C138.382 25.3639 138.321 25.4946 138.228 25.7279C138.144 25.9612 138.102 26.0966 138.102 26.1339C138.111 26.1992 138.102 26.2832 138.074 26.3859C138.046 26.4792 138.013 26.5446 137.976 26.5819C137.966 26.6192 137.878 26.9926 137.71 27.7019C137.542 28.4112 137.374 28.9806 137.206 29.4099C137.215 29.4566 137.196 29.5406 137.15 29.6619C137.112 29.7832 137.094 29.8672 137.094 29.9139C136.954 30.3619 136.888 30.6139 136.898 30.6699C136.711 31.6219 136.618 32.1306 136.618 32.1959C136.608 32.2146 136.58 32.2239 136.534 32.2239C136.468 32.2239 136.352 32.1912 136.184 32.1259C136.062 32.0606 135.974 31.9952 135.918 31.9299C135.862 31.8646 135.834 31.7852 135.834 31.6919C135.834 31.6079 135.871 31.4819 135.946 31.3139C135.983 31.2486 136.053 30.9686 136.156 30.4739L136.296 29.8719C136.352 29.6759 136.459 29.2466 136.618 28.5839C136.646 28.4626 136.688 28.2806 136.744 28.0379C136.8 27.7952 136.837 27.6646 136.856 27.6459V27.5059C136.828 27.4779 136.636 27.4639 136.282 27.4639C135.908 27.4639 135.484 27.4826 135.008 27.5199C134.541 27.5479 134.14 27.5899 133.804 27.6459L133.468 27.6599C133.309 27.6599 133.202 27.6646 133.146 27.6739C133.052 27.6739 132.973 27.6786 132.908 27.6879C132.842 27.6879 132.8 27.6879 132.782 27.6879C132.735 27.7812 132.609 28.2152 132.404 28.9899C132.198 29.7552 132.082 30.2406 132.054 30.4459C131.97 30.8752 131.872 31.3326 131.76 31.8179C131.657 32.3126 131.573 32.6859 131.508 32.9379ZM147.659 22.8579C147.705 22.9326 147.729 23.0212 147.729 23.1239C147.729 23.2452 147.705 23.3759 147.659 23.5159C147.612 23.6466 147.561 23.7539 147.505 23.8379C147.43 23.9499 147.318 24.0806 147.169 24.2299C147.019 24.3699 146.921 24.4399 146.875 24.4399C146.828 24.4399 146.781 24.4259 146.735 24.3979C146.688 24.3606 146.651 24.3372 146.623 24.3279C146.576 24.3092 146.553 24.2766 146.553 24.2299C146.553 24.1832 146.581 24.1179 146.637 24.0339C146.693 23.9406 146.735 23.8752 146.763 23.8379C146.903 23.6419 146.973 23.4739 146.973 23.3339C146.973 23.2966 146.963 23.2312 146.945 23.1379C146.926 23.1286 146.893 23.1239 146.847 23.1239C146.763 23.1239 146.66 23.1472 146.539 23.1939C146.277 23.3432 146.039 23.5346 145.825 23.7679C145.657 23.9172 145.512 24.0899 145.391 24.2859C145.279 24.4819 145.176 24.6779 145.083 24.8739C144.989 25.0606 144.924 25.1912 144.887 25.2659C144.653 25.7792 144.509 26.1059 144.453 26.2459C144.406 26.3672 144.345 26.5072 144.271 26.6659C144.196 26.8152 144.159 26.8992 144.159 26.9179C144.14 26.9552 144.135 26.9832 144.145 27.0019C144.163 27.0112 144.205 27.0159 144.271 27.0159C144.383 27.0159 144.485 27.0112 144.579 27.0019C144.849 26.9646 145.111 26.9459 145.363 26.9459C145.559 26.9459 145.708 26.9692 145.811 27.0159C145.913 27.0532 145.979 27.1186 146.007 27.2119C146.072 27.3052 146.105 27.3846 146.105 27.4499C146.105 27.5339 146.044 27.5946 145.923 27.6319C145.801 27.6692 145.573 27.7112 145.237 27.7579C145.041 27.7859 144.91 27.8046 144.845 27.8139C144.677 27.8232 144.527 27.8326 144.397 27.8419C144.266 27.8419 144.168 27.8466 144.103 27.8559C144.093 27.8559 144.07 27.8606 144.033 27.8699C144.005 27.8699 143.977 27.8979 143.949 27.9539C143.921 28.0006 143.893 28.0752 143.865 28.1779C143.865 28.2432 143.86 28.3086 143.851 28.3739C143.841 28.4299 143.832 28.4812 143.823 28.5279C143.804 28.6119 143.785 28.7566 143.767 28.9619C143.739 29.0366 143.72 29.1019 143.711 29.1579C143.701 29.2139 143.692 29.2606 143.683 29.2979C143.673 29.4192 143.645 29.5312 143.599 29.6339C143.571 29.9232 143.533 30.4039 143.487 31.0759C143.459 31.6079 143.426 32.0046 143.389 32.2659C143.351 32.5366 143.281 32.7419 143.179 32.8819C143.011 33.0686 142.88 33.1246 142.787 33.0499C142.721 33.0312 142.651 32.9939 142.577 32.9379C142.502 32.8912 142.465 32.8492 142.465 32.8119C142.474 32.7652 142.488 32.7092 142.507 32.6439C142.525 32.5879 142.539 32.5366 142.549 32.4899C142.567 32.4246 142.577 32.3126 142.577 32.1539C142.586 32.0792 142.591 31.9859 142.591 31.8739C142.6 31.7712 142.609 31.6312 142.619 31.4539C142.675 30.7166 142.726 30.1799 142.773 29.8439C142.819 29.5079 142.908 29.0599 143.039 28.4999C143.057 28.3879 143.067 28.2619 143.067 28.1219C143.067 27.9912 143.048 27.9072 143.011 27.8699C142.973 27.8232 142.913 27.7952 142.829 27.7859C142.623 27.7672 142.455 27.7346 142.325 27.6879C142.203 27.6412 142.129 27.5666 142.101 27.4639C142.035 27.4079 142.003 27.3566 142.003 27.3099C142.003 27.2259 142.077 27.1652 142.227 27.1279C142.385 27.0812 142.572 27.0626 142.787 27.0719C142.824 27.0719 142.913 27.0672 143.053 27.0579C143.202 27.0486 143.305 27.0019 143.361 26.9179C143.426 26.8246 143.487 26.6799 143.543 26.4839C143.571 26.3812 143.622 26.2179 143.697 25.9939C143.771 25.7699 143.823 25.6206 143.851 25.5459C143.879 25.5272 143.907 25.4899 143.935 25.4339C143.963 25.3779 143.977 25.3312 143.977 25.2939C143.986 25.1726 144.042 25.0092 144.145 24.8039C144.257 24.5986 144.453 24.2766 144.733 23.8379C145.078 23.3899 145.377 23.0586 145.629 22.8439C145.881 22.6292 146.17 22.4939 146.497 22.4379C146.534 22.4099 146.623 22.4006 146.763 22.4099C146.912 22.4099 146.996 22.4099 147.015 22.4099C147.201 22.4192 147.332 22.4519 147.407 22.5079C147.481 22.5639 147.565 22.6806 147.659 22.8579ZM146.189 31.1599C146.114 31.1039 146.063 31.0526 146.035 31.0059C146.007 30.9592 145.993 30.8892 145.993 30.7959C145.993 30.7119 145.998 30.6419 146.007 30.5859C146.035 30.2686 146.105 29.8999 146.217 29.4799L146.287 29.1999C146.315 28.9666 146.478 28.4766 146.777 27.7299C147.076 26.9832 147.318 26.4746 147.505 26.2039C147.58 26.1572 147.659 26.1339 147.743 26.1339C147.864 26.1339 147.967 26.1759 148.051 26.2599C148.107 26.2972 148.135 26.3672 148.135 26.4699C148.135 26.5632 148.098 26.7032 148.023 26.8899C147.958 27.0672 147.841 27.3332 147.673 27.6879C147.636 27.7626 147.57 27.9026 147.477 28.1079C147.393 28.3132 147.351 28.4346 147.351 28.4719C147.351 28.4906 147.356 28.4999 147.365 28.4999C147.384 28.4999 147.402 28.4952 147.421 28.4859C147.44 28.4672 147.458 28.4532 147.477 28.4439C147.58 28.2666 147.827 28.0239 148.219 27.7159C148.62 27.4079 148.896 27.2166 149.045 27.1419C149.11 27.1046 149.194 27.0672 149.297 27.0299C149.4 26.9926 149.47 26.9646 149.507 26.9459C149.656 26.8712 149.834 26.8339 150.039 26.8339C150.17 26.8339 150.282 26.8572 150.375 26.9039C150.478 26.9412 150.548 27.0019 150.585 27.0859C150.594 27.1512 150.618 27.2026 150.655 27.2399C150.702 27.2772 150.734 27.3006 150.753 27.3099C150.781 27.3099 150.8 27.3239 150.809 27.3519C150.818 27.3706 150.823 27.3846 150.823 27.3939C150.823 27.4592 150.786 27.5012 150.711 27.5199C150.636 27.5292 150.501 27.5386 150.305 27.5479C150.202 27.5572 150.095 27.5806 149.983 27.6179C149.871 27.6552 149.759 27.7019 149.647 27.7579C149.124 28.0566 148.732 28.2899 148.471 28.4579C148.219 28.6259 147.962 28.8546 147.701 29.1439C147.598 29.2559 147.463 29.4566 147.295 29.7459C147.23 29.8112 147.16 29.9839 147.085 30.2639C147.02 30.5346 146.987 30.7026 146.987 30.7679C146.978 30.7959 146.959 30.8519 146.931 30.9359C146.903 31.0106 146.861 31.0852 146.805 31.1599C146.693 31.3092 146.6 31.3839 146.525 31.3839C146.441 31.3839 146.329 31.3092 146.189 31.1599ZM151.794 31.4399C151.682 31.4399 151.593 31.4212 151.528 31.3839C151.463 31.3466 151.369 31.2766 151.248 31.1739C150.94 30.8472 150.786 30.5486 150.786 30.2779C150.786 30.2126 150.791 30.1659 150.8 30.1379C150.828 30.0726 150.837 30.0072 150.828 29.9419C150.828 29.8766 150.828 29.8346 150.828 29.8159C150.791 29.7786 150.772 29.7552 150.772 29.7459C150.772 29.7272 150.781 29.7132 150.8 29.7039C150.819 29.6852 150.833 29.6666 150.842 29.6479C150.898 29.6479 150.917 29.5966 150.898 29.4939C150.879 29.4192 150.917 29.2559 151.01 29.0039C151.103 28.7426 151.22 28.5046 151.36 28.2899C151.463 28.1219 151.612 27.9119 151.808 27.6599C152.013 27.4079 152.195 27.2166 152.354 27.0859C152.578 26.8899 152.779 26.7452 152.956 26.6519C153.133 26.5586 153.329 26.4886 153.544 26.4419C153.731 26.3952 153.857 26.3719 153.922 26.3719C153.987 26.3719 154.043 26.3906 154.09 26.4279C154.146 26.4559 154.216 26.5119 154.3 26.5959C154.552 26.7079 154.725 26.8526 154.818 27.0299C154.921 27.1979 154.972 27.4639 154.972 27.8279C154.972 28.4346 154.725 29.0926 154.23 29.8019C154.015 30.1099 153.815 30.3479 153.628 30.5159C153.441 30.6746 153.194 30.8472 152.886 31.0339C152.69 31.1739 152.508 31.2766 152.34 31.3419C152.181 31.3979 151.999 31.4306 151.794 31.4399ZM153.138 29.9559C153.362 29.7039 153.539 29.4659 153.67 29.2419C153.81 29.0179 153.941 28.7332 154.062 28.3879C154.109 28.2292 154.132 28.0379 154.132 27.8139C154.132 27.5339 154.095 27.3752 154.02 27.3379C153.927 27.2912 153.833 27.2679 153.74 27.2679C153.535 27.2679 153.32 27.3612 153.096 27.5479C152.825 27.7812 152.583 28.0706 152.368 28.4159C152.153 28.7519 151.934 29.1719 151.71 29.6759C151.617 29.8719 151.57 30.0632 151.57 30.2499C151.57 30.3899 151.603 30.5019 151.668 30.5859C151.743 30.6699 151.841 30.7119 151.962 30.7119C152.27 30.7119 152.662 30.4599 153.138 29.9559ZM156.015 31.1319C155.941 31.0386 155.903 30.9452 155.903 30.8519C155.903 30.7772 155.88 30.7399 155.833 30.7399C155.777 30.6839 155.885 30.3666 156.155 29.7879C156.426 29.1999 156.659 28.7519 156.855 28.4439C156.893 28.4159 156.921 28.3786 156.939 28.3319C156.958 28.2759 156.958 28.2479 156.939 28.2479C156.958 28.2199 156.986 28.1732 157.023 28.1079C157.061 28.0426 157.098 27.9866 157.135 27.9399C157.294 27.6319 157.359 27.3846 157.331 27.1979C157.294 27.1606 157.252 27.1466 157.205 27.1559C157.168 27.1652 157.145 27.1746 157.135 27.1839C157.117 27.1932 157.065 27.2119 156.981 27.2399C156.907 27.2586 156.841 27.2866 156.785 27.3239C156.571 27.4639 156.435 27.5339 156.379 27.5339C156.323 27.5339 156.272 27.5059 156.225 27.4499C156.188 27.3939 156.146 27.3006 156.099 27.1699C156.071 27.0859 156.057 27.0252 156.057 26.9879C156.057 26.9226 156.095 26.8572 156.169 26.7919C156.225 26.7359 156.291 26.6939 156.365 26.6659C156.449 26.6286 156.505 26.6006 156.533 26.5819C156.729 26.4699 156.869 26.4046 156.953 26.3859C157.121 26.3392 157.257 26.3159 157.359 26.3159C157.639 26.3159 157.835 26.4466 157.947 26.7079C158.078 26.8666 158.143 27.0486 158.143 27.2539C158.143 27.4312 158.078 27.6599 157.947 27.9399L157.807 28.1499C157.779 28.2059 157.765 28.2432 157.765 28.2619C157.765 28.2806 157.77 28.2899 157.779 28.2899C157.817 28.2899 157.859 28.2572 157.905 28.1919C157.952 28.1452 158.013 28.0892 158.087 28.0239C158.162 27.9492 158.213 27.9119 158.241 27.9119C158.251 27.9119 158.265 27.9072 158.283 27.8979C158.302 27.8792 158.311 27.8419 158.311 27.7859L158.451 27.6599C158.489 27.6599 158.601 27.5806 158.787 27.4219L159.053 27.2119C159.156 27.1372 159.249 27.0999 159.333 27.0999C159.361 27.0906 159.403 27.0859 159.459 27.0859C159.637 27.0859 159.781 27.1839 159.893 27.3799C160.005 27.5666 160.061 27.8092 160.061 28.1079L159.767 28.8639L160.271 28.2479C160.355 28.1452 160.467 28.0332 160.607 27.9119C160.626 27.8559 160.649 27.8232 160.677 27.8139C160.715 27.7952 160.738 27.7859 160.747 27.7859C160.757 27.7859 160.766 27.7812 160.775 27.7719C160.794 27.7626 160.803 27.7486 160.803 27.7299C160.841 27.7019 160.887 27.6692 160.943 27.6319C161.009 27.5852 161.051 27.5479 161.069 27.5199C161.153 27.4826 161.247 27.4639 161.349 27.4639C161.545 27.4639 161.709 27.5899 161.839 27.8419C161.895 27.9446 161.928 28.0379 161.937 28.1219C161.956 28.1966 161.965 28.3272 161.965 28.5139C161.928 28.7192 161.895 28.9339 161.867 29.1579C161.867 29.1952 161.858 29.2886 161.839 29.4379C161.793 29.5406 161.769 29.6992 161.769 29.9139C161.769 30.0446 161.774 30.1286 161.783 30.1659C161.802 30.2032 161.839 30.2219 161.895 30.2219C162.035 30.1939 162.217 30.1286 162.441 30.0259C162.675 29.9139 162.843 29.8066 162.945 29.7039C163.085 29.5639 163.211 29.4939 163.323 29.4939C163.426 29.4939 163.491 29.5499 163.519 29.6619C163.547 29.7179 163.473 29.8672 163.295 30.1099C163.127 30.3526 163.011 30.4739 162.945 30.4739C162.927 30.4739 162.889 30.5019 162.833 30.5579C162.787 30.6139 162.749 30.6512 162.721 30.6699C162.563 30.8472 162.432 30.9359 162.329 30.9359C162.292 30.9359 162.241 30.9499 162.175 30.9779C162.119 30.9966 162.068 31.0059 162.021 31.0059C162.003 31.0152 161.956 31.0199 161.881 31.0199C161.741 31.0199 161.606 30.9826 161.475 30.9079C161.345 30.8332 161.261 30.7212 161.223 30.5719C161.149 30.3852 161.111 30.1239 161.111 29.7879C161.111 29.7039 161.121 29.5686 161.139 29.3819L161.209 28.9479C161.228 28.7706 161.247 28.6632 161.265 28.6259V28.4999C161.265 28.3412 161.251 28.2619 161.223 28.2619C161.149 28.2619 160.901 28.5046 160.481 28.9899C160.061 29.4659 159.739 29.8766 159.515 30.2219C159.45 30.3059 159.375 30.4319 159.291 30.5999C159.217 30.7586 159.17 30.8426 159.151 30.8519C159.114 30.8892 159.072 30.9079 159.025 30.9079C158.969 30.9079 158.909 30.8799 158.843 30.8239C158.778 30.7679 158.722 30.6979 158.675 30.6139C158.638 30.5206 158.619 30.4506 158.619 30.4039C158.619 30.3386 158.647 30.2126 158.703 30.0259C158.759 29.8299 158.839 29.5732 158.941 29.2559C159.044 28.9479 159.128 28.6819 159.193 28.4579C159.268 28.2339 159.315 28.0846 159.333 28.0099C159.333 27.9446 159.1 28.1126 158.633 28.5139C158.54 28.6259 158.433 28.7426 158.311 28.8639C158.097 29.0879 157.854 29.3492 157.583 29.6479C157.322 29.9466 157.093 30.2312 156.897 30.5019C156.692 30.7819 156.538 30.9779 156.435 31.0899C156.342 31.2019 156.263 31.2579 156.197 31.2579C156.151 31.2579 156.09 31.2159 156.015 31.1319ZM168.566 32.3499C168.314 32.3032 168.128 32.2146 168.006 32.0839C167.894 31.9626 167.838 31.7759 167.838 31.5239C167.838 31.4586 167.848 31.3419 167.866 31.1739C167.904 31.0432 167.932 30.9126 167.95 30.7819C167.997 30.5766 168.044 30.4552 168.09 30.4179C168.1 30.4086 168.109 30.3899 168.118 30.3619C168.128 30.3339 168.118 30.3106 168.09 30.2919C168.09 30.1706 168.132 30.0026 168.216 29.7879C168.235 29.7226 168.258 29.6572 168.286 29.5919C168.314 29.5266 168.333 29.4846 168.342 29.4659C168.324 29.4472 168.314 29.4192 168.314 29.3819C168.314 29.3352 168.338 29.2886 168.384 29.2419C168.44 29.1952 168.478 29.1532 168.496 29.1159C168.524 29.0786 168.524 29.0412 168.496 29.0039C168.478 28.9572 168.566 28.7472 168.762 28.3739C168.884 28.1312 168.949 27.9959 168.958 27.9679C168.949 27.9399 169.014 27.7672 169.154 27.4499C169.304 27.1326 169.42 26.8946 169.504 26.7359C169.588 26.6892 169.556 26.6566 169.406 26.6379C169.257 26.6192 169.075 26.6146 168.86 26.6239C168.552 26.6146 168.314 26.6006 168.146 26.5819C167.978 26.5539 167.843 26.5119 167.74 26.4559C167.656 26.3532 167.614 26.2739 167.614 26.2179C167.614 26.1246 167.726 26.0732 167.95 26.0639C168.193 26.0546 168.566 26.0219 169.07 25.9659L169.784 25.9099L169.826 25.6719C169.957 25.4479 170.05 25.2752 170.106 25.1539C170.162 25.0232 170.204 24.8786 170.232 24.7199C170.26 24.6826 170.307 24.5892 170.372 24.4399C170.447 24.2906 170.494 24.1459 170.512 24.0059C170.615 23.8286 170.708 23.6606 170.792 23.5019C170.886 23.3339 170.942 23.2359 170.96 23.2079C171.063 23.1239 171.133 23.0819 171.17 23.0819C171.226 23.0819 171.32 23.1286 171.45 23.2219C171.684 23.3806 171.8 23.5159 171.8 23.6279C171.8 23.6839 171.772 23.7399 171.716 23.7959C171.679 23.8706 171.623 24.0199 171.548 24.2439C171.483 24.3279 171.413 24.4446 171.338 24.5939C171.264 24.7339 171.212 24.8692 171.184 24.9999C171.11 25.1586 171.035 25.3032 170.96 25.4339C170.895 25.5552 170.848 25.6159 170.82 25.6159C170.83 25.6719 170.848 25.7092 170.876 25.7279C170.904 25.7466 170.951 25.7559 171.016 25.7559C171.063 25.7559 171.119 25.7512 171.184 25.7419C171.259 25.7326 171.348 25.7279 171.45 25.7279C171.544 25.7186 171.623 25.7046 171.688 25.6859C171.763 25.6672 171.833 25.6579 171.898 25.6579C171.945 25.6579 172.001 25.6719 172.066 25.6999C172.16 25.8212 172.206 25.9472 172.206 26.0779C172.206 26.1806 172.164 26.2552 172.08 26.3019C172.034 26.3112 171.931 26.3392 171.772 26.3859C171.614 26.4326 171.441 26.4606 171.254 26.4699L170.512 26.5399L170.274 27.0159C170.209 27.1279 170.153 27.2352 170.106 27.3379C170.06 27.4406 170.027 27.5012 170.008 27.5199C170.008 27.5666 169.971 27.6599 169.896 27.7999C169.822 27.9399 169.766 28.0519 169.728 28.1359C169.682 28.2666 169.626 28.3972 169.56 28.5279C169.495 28.6492 169.453 28.7286 169.434 28.7659C169.406 28.7659 169.388 28.7752 169.378 28.7939C169.378 28.8032 169.378 28.8219 169.378 28.8499L169.406 28.9619C169.406 29.0086 169.383 29.0552 169.336 29.1019C169.299 29.1206 169.262 29.1532 169.224 29.1999C169.196 29.2466 169.178 29.2792 169.168 29.2979C169.187 29.3166 169.196 29.3399 169.196 29.3679C169.196 29.4332 169.164 29.5172 169.098 29.6199C169.098 29.7786 169.033 30.0166 168.902 30.3339C168.912 30.5019 168.921 30.6092 168.93 30.6559C168.94 30.7026 168.963 30.7212 169 30.7119H169.056L169.238 30.6979C169.369 30.6419 169.299 30.9686 169.028 31.6779L168.804 32.0559C168.795 32.0746 168.762 32.1259 168.706 32.2099C168.65 32.3032 168.604 32.3499 168.566 32.3499ZM172.221 30.8939C172.081 30.8939 171.974 30.8612 171.899 30.7959C171.824 30.7306 171.773 30.6792 171.745 30.6419C171.726 30.6046 171.717 30.5579 171.717 30.5019C171.717 30.4646 171.75 30.2919 171.815 29.9839L171.941 29.5219C172.034 29.1392 172.118 28.8219 172.193 28.5699C172.23 28.3366 172.3 28.0892 172.403 27.8279C172.515 27.5666 172.58 27.4079 172.599 27.3519C172.674 27.0812 172.818 26.6612 173.033 26.0919L173.453 24.9579C173.78 24.0712 173.976 23.5299 174.041 23.3339L174.265 22.7179C174.265 22.5686 174.34 22.4939 174.489 22.4939C174.62 22.4939 174.727 22.5686 174.811 22.7179C174.904 22.8579 174.951 23.0212 174.951 23.2079C174.951 23.3479 174.923 23.4832 174.867 23.6139C174.736 23.8939 174.592 24.2486 174.433 24.6779C174.284 25.0979 174.186 25.3732 174.139 25.5039C173.822 26.3999 173.593 26.9972 173.453 27.2959C173.453 27.3332 173.439 27.3986 173.411 27.4919C173.383 27.5852 173.35 27.6692 173.313 27.7439L173.159 28.0519C173.159 28.0799 173.108 28.2759 173.005 28.6399C172.874 29.0412 172.795 29.3352 172.767 29.5219C172.814 29.4379 172.912 29.3119 173.061 29.1439C173.21 28.9666 173.35 28.8219 173.481 28.7099C173.994 28.2712 174.312 28.0099 174.433 27.9259C174.545 27.8606 174.638 27.7999 174.713 27.7439C174.788 27.6879 174.839 27.6506 174.867 27.6319C174.867 27.5852 174.918 27.5619 175.021 27.5619C175.058 27.5619 175.077 27.5572 175.077 27.5479C175.086 27.5386 175.091 27.5152 175.091 27.4779C175.091 27.4126 175.198 27.3566 175.413 27.3099C175.628 27.2539 175.819 27.2259 175.987 27.2259C176.099 27.2259 176.188 27.2492 176.253 27.2959C176.318 27.3426 176.402 27.4452 176.505 27.6039C176.664 27.8279 176.743 28.0706 176.743 28.3319C176.743 28.4812 176.715 28.6352 176.659 28.7939C176.659 28.8686 176.645 28.9852 176.617 29.1439C176.598 29.2932 176.589 29.4239 176.589 29.5359L176.505 29.9839H176.729C176.794 29.9839 176.855 29.9932 176.911 30.0119C176.976 30.0306 177.018 30.0446 177.037 30.0539C177.121 30.1566 177.196 30.2079 177.261 30.2079C177.345 30.2079 177.387 30.2406 177.387 30.3059C177.387 30.3432 177.368 30.3899 177.331 30.4459C177.294 30.5019 177.242 30.5486 177.177 30.5859C176.934 30.7352 176.729 30.8099 176.561 30.8099C176.402 30.8099 176.239 30.7352 176.071 30.5859C175.866 30.3806 175.763 30.1332 175.763 29.8439C175.763 29.6946 175.791 29.5172 175.847 29.3119L175.889 28.8639C175.908 28.6399 175.917 28.4999 175.917 28.4439C175.917 28.2292 175.866 28.1219 175.763 28.1219C175.632 28.1219 175.38 28.2386 175.007 28.4719C174.643 28.6959 174.265 28.9806 173.873 29.3259C173.481 29.6619 173.168 30.0026 172.935 30.3479C172.795 30.5252 172.674 30.6606 172.571 30.7539C172.478 30.8379 172.389 30.8846 172.305 30.8939H172.221ZM179.499 31.6919C179.098 31.6919 178.767 31.5426 178.505 31.2439C178.244 30.9452 178.113 30.5719 178.113 30.1239C178.113 29.6759 178.211 29.1859 178.407 28.6539C178.613 28.1126 178.874 27.6272 179.191 27.1979C179.509 26.7686 179.831 26.4792 180.157 26.3299C180.344 26.2272 180.554 26.1759 180.787 26.1759C180.965 26.1759 181.165 26.2272 181.389 26.3299C181.548 26.3952 181.669 26.4746 181.753 26.5679C181.837 26.6612 181.912 26.8059 181.977 27.0019C182.005 27.1699 182.019 27.2866 182.019 27.3519C182.019 27.4079 181.996 27.5292 181.949 27.7159C181.837 28.0612 181.688 28.3552 181.501 28.5979C181.324 28.8312 181.091 29.0319 180.801 29.1999C180.652 29.2932 180.465 29.3399 180.241 29.3399C180.045 29.3399 179.859 29.3072 179.681 29.2419C179.513 29.1672 179.383 29.0599 179.289 28.9199L179.191 28.8079L179.149 28.9199C178.953 29.4239 178.855 29.8532 178.855 30.2079C178.855 30.4506 178.902 30.6466 178.995 30.7959C179.061 30.8986 179.219 30.9499 179.471 30.9499C179.658 30.9499 179.793 30.9312 179.877 30.8939C180.017 30.8472 180.139 30.7912 180.241 30.7259C180.353 30.6512 180.461 30.5766 180.563 30.5019L180.619 30.4739H180.605C180.717 30.4179 180.811 30.3666 180.885 30.3199C180.96 30.2732 181.011 30.2406 181.039 30.2219C181.058 30.2219 181.077 30.2172 181.095 30.2079C181.114 30.1986 181.133 30.1799 181.151 30.1519C181.235 30.1146 181.333 30.1286 181.445 30.1939C181.557 30.2592 181.613 30.3432 181.613 30.4459C181.595 30.5206 181.511 30.6419 181.361 30.8099C181.212 30.9779 181.1 31.0666 181.025 31.0759C181.016 31.0759 180.983 31.0899 180.927 31.1179C180.871 31.1459 180.834 31.1692 180.815 31.1879H180.829C180.745 31.2999 180.661 31.3559 180.577 31.3559H180.465C180.428 31.4306 180.302 31.5052 180.087 31.5799C179.882 31.6546 179.686 31.6919 179.499 31.6919ZM180.129 28.6119C180.409 28.6119 180.666 28.4532 180.899 28.1359C181.123 27.8372 181.235 27.5386 181.235 27.2399C181.235 27.0812 181.203 26.9692 181.137 26.9039C181.081 26.8759 181.03 26.8619 180.983 26.8619C180.937 26.8619 180.857 26.8759 180.745 26.9039C180.624 26.9319 180.437 27.0626 180.185 27.2959C179.933 27.5199 179.747 27.7206 179.625 27.8979L179.443 28.1919C179.518 28.1639 179.588 28.1499 179.653 28.1499C179.728 28.1406 179.77 28.1452 179.779 28.1639C179.779 28.2946 179.812 28.4019 179.877 28.4859C179.943 28.5699 180.027 28.6119 180.129 28.6119ZM185.385 32.1119C185.282 32.0559 185.207 32.0046 185.161 31.9579C185.123 31.9112 185.105 31.8506 185.105 31.7759C185.105 31.6826 185.142 31.5519 185.217 31.3839C185.301 31.2066 185.441 30.9312 185.637 30.5579C185.693 30.4366 185.8 30.2219 185.959 29.9139C186.5 28.8779 186.771 28.3132 186.771 28.2199C186.761 28.2012 186.757 28.1732 186.757 28.1359C186.757 28.0426 186.831 27.9586 186.981 27.8839C187.195 27.6692 187.373 27.4406 187.513 27.1979C187.606 26.9926 187.732 26.7499 187.891 26.4699C188.049 26.1806 188.245 25.8399 188.479 25.4479C188.591 25.2519 188.759 24.9672 188.983 24.5939C189.328 23.9779 189.771 23.3059 190.313 22.5779C190.527 22.2886 190.705 22.1486 190.845 22.1579C191.022 22.1579 191.218 22.2419 191.433 22.4099C191.657 22.5686 191.811 22.7506 191.895 22.9559C191.932 23.0212 191.951 23.1612 191.951 23.3759C191.951 23.6652 191.918 24.1552 191.853 24.8459C191.834 24.9672 191.815 25.1586 191.797 25.4199C191.769 25.8399 191.727 26.2879 191.671 26.7639C191.568 27.8092 191.493 28.6259 191.447 29.2139C191.4 29.8019 191.377 30.3526 191.377 30.8659C191.377 31.1272 191.381 31.3186 191.391 31.4399V31.5379L191.377 31.8599C191.321 31.9159 191.237 31.9439 191.125 31.9439C190.994 31.9439 190.868 31.9112 190.747 31.8459C190.625 31.7899 190.555 31.7199 190.537 31.6359C190.527 31.6266 190.513 31.6172 190.495 31.6079C190.476 31.5986 190.467 31.5566 190.467 31.4819L190.481 31.1739L190.523 30.3899L190.593 28.1219L190.411 28.1359C190.224 28.1359 189.809 28.1732 189.165 28.2479C188.521 28.3226 188.119 28.3832 187.961 28.4299C187.877 28.4299 187.774 28.4859 187.653 28.5979C187.531 28.7099 187.424 28.8546 187.331 29.0319C187.303 29.1252 187.237 29.2606 187.135 29.4379C187.032 29.6059 186.981 29.7039 186.981 29.7319C186.925 29.7692 186.873 29.8206 186.827 29.8859C186.789 29.9419 186.766 29.9792 186.757 29.9979C186.757 30.1006 186.659 30.3619 186.463 30.7819C186.276 31.2019 186.089 31.5519 185.903 31.8319L185.609 32.2799L185.385 32.1119ZM188.283 27.6039C188.339 27.5946 188.46 27.5759 188.647 27.5479C188.833 27.5106 189.001 27.4872 189.151 27.4779C189.823 27.3192 190.233 27.2399 190.383 27.2399C190.448 27.2399 190.509 27.2539 190.565 27.2819C190.593 27.3192 190.621 27.3472 190.649 27.3659C190.686 27.3752 190.709 27.3799 190.719 27.3799C190.737 27.3239 190.793 26.8199 190.887 25.8679C190.989 24.9066 191.045 24.2672 191.055 23.9499L191.097 23.2499C191.041 23.2499 190.919 23.3572 190.733 23.5719C190.546 23.7866 190.336 24.0666 190.103 24.4119C189.879 24.7479 189.678 25.0932 189.501 25.4479C189.407 25.6159 189.314 25.7746 189.221 25.9239C189.137 26.0639 189.076 26.1339 189.039 26.1339C188.973 26.1992 188.819 26.4512 188.577 26.8899C188.334 27.3286 188.236 27.5666 188.283 27.6039ZM195.03 25.6579C194.853 25.6579 194.671 25.5646 194.484 25.3779C194.307 25.1819 194.218 24.9812 194.218 24.7759C194.218 24.7292 194.274 24.6219 194.386 24.4539C194.498 24.2859 194.554 24.1926 194.554 24.1739C194.619 24.1739 194.675 24.1786 194.722 24.1879C194.769 24.1972 194.825 24.2159 194.89 24.2439C194.974 24.4306 195.105 24.6219 195.282 24.8179C195.338 24.8926 195.389 24.9626 195.436 25.0279C195.483 25.0932 195.506 25.1492 195.506 25.1959C195.506 25.3546 195.497 25.4619 195.478 25.5179C195.469 25.5739 195.431 25.6112 195.366 25.6299C195.31 25.6486 195.198 25.6579 195.03 25.6579ZM192.972 30.9639C192.944 30.9639 192.907 30.9546 192.86 30.9359C192.813 30.9172 192.781 30.9032 192.762 30.8939C192.762 30.8659 192.748 30.8192 192.72 30.7539C192.701 30.6792 192.692 30.6326 192.692 30.6139C192.617 30.5766 192.58 30.5299 192.58 30.4739C192.58 30.4272 192.594 30.3619 192.622 30.2779C192.743 30.0632 192.958 29.5779 193.266 28.8219C193.574 28.0566 193.747 27.6039 193.784 27.4639C193.784 27.4266 193.798 27.3799 193.826 27.3239C193.854 27.2679 193.887 27.2212 193.924 27.1839C193.961 27.1466 194.003 27.1279 194.05 27.1279C194.153 27.1279 194.246 27.1979 194.33 27.3379C194.423 27.4779 194.47 27.6319 194.47 27.7999C194.47 27.9119 194.363 28.2339 194.148 28.7659C193.943 29.2886 193.709 29.8159 193.448 30.3479C193.411 30.4226 193.355 30.5299 193.28 30.6699C193.215 30.8099 193.163 30.8939 193.126 30.9219C193.089 30.9499 193.037 30.9639 192.972 30.9639ZM196.003 31.2159C195.947 31.2159 195.868 31.1972 195.765 31.1599C195.663 31.1226 195.597 31.0899 195.569 31.0619C195.476 30.9686 195.429 30.8612 195.429 30.7399C195.429 30.5346 195.532 30.2872 195.737 29.9979C195.793 29.8859 195.933 29.4986 196.157 28.8359L196.437 28.0659C196.456 27.9072 196.447 27.7952 196.409 27.7299C196.372 27.6552 196.293 27.6132 196.171 27.6039H196.087C196.003 27.6039 195.947 27.5899 195.919 27.5619C195.891 27.5246 195.877 27.4359 195.877 27.2959C195.887 27.1839 195.915 27.0999 195.961 27.0439C196.008 26.9879 196.087 26.9226 196.199 26.8479C196.349 26.7732 196.503 26.7359 196.661 26.7359C196.811 26.7359 196.923 26.7686 196.997 26.8339C197.053 26.8712 197.091 26.9552 197.109 27.0859C197.137 27.2072 197.151 27.3379 197.151 27.4779C197.161 27.6086 197.17 27.7019 197.179 27.7579C197.226 27.7112 197.338 27.6179 197.515 27.4779C197.702 27.3286 197.861 27.1886 197.991 27.0579C198.15 26.9459 198.332 26.8386 198.537 26.7359C198.743 26.6332 198.887 26.5819 198.971 26.5819C199.074 26.5819 199.177 26.6099 199.279 26.6659C199.382 26.7126 199.452 26.7732 199.489 26.8479C199.573 26.9972 199.615 27.1326 199.615 27.2539C199.615 27.3846 199.564 27.5152 199.461 27.6459C199.377 27.7486 199.27 27.8279 199.139 27.8839C199.009 27.9399 198.915 27.9679 198.859 27.9679C198.803 27.9679 198.733 27.9259 198.649 27.8419C198.565 27.7579 198.519 27.6879 198.509 27.6319C198.509 27.5946 198.388 27.6692 198.145 27.8559C197.912 28.0332 197.73 28.1872 197.599 28.3179C197.45 28.4952 197.296 28.7286 197.137 29.0179C196.988 29.3072 196.764 29.7459 196.465 30.3339C196.437 30.3992 196.372 30.5579 196.269 30.8099C196.223 30.9592 196.181 31.0666 196.143 31.1319C196.106 31.1879 196.059 31.2159 196.003 31.2159ZM199.466 34.7719C199.364 34.7346 199.261 34.6506 199.158 34.5199C199.056 34.3986 199.004 34.2959 199.004 34.2119C199.004 34.0719 199.098 33.6099 199.284 32.8259C199.471 32.0512 199.653 31.4212 199.83 30.9359C199.84 30.8986 199.9 30.7446 200.012 30.4739C200.124 30.2032 200.232 29.8766 200.334 29.4939C200.409 29.2232 200.605 28.6959 200.922 27.9119L201.328 26.9039L201.65 26.0219C201.678 25.9472 201.725 25.8819 201.79 25.8259C201.865 25.7606 201.93 25.7186 201.986 25.6999C202.005 25.6906 202.038 25.6859 202.084 25.6859C202.215 25.6859 202.327 25.7606 202.42 25.9099C202.448 25.9659 202.462 26.0219 202.462 26.0779C202.462 26.1712 202.406 26.3532 202.294 26.6239L202.196 26.9039L202.7 26.7919C202.831 26.7919 202.938 26.7966 203.022 26.8059C203.358 26.8059 203.568 26.8152 203.652 26.8339C203.858 26.8432 204.002 26.8806 204.086 26.9459C204.18 27.0112 204.268 27.1139 204.352 27.2539C204.52 27.4126 204.614 27.5526 204.632 27.6739C204.651 27.7859 204.66 27.8746 204.66 27.9399C204.66 28.2386 204.572 28.5466 204.394 28.8639C204.217 29.1719 204.007 29.4052 203.764 29.5639C203.671 29.6012 203.592 29.6386 203.526 29.6759C203.461 29.7132 203.419 29.7366 203.4 29.7459C203.382 29.8206 203.167 29.9419 202.756 30.1099C202.355 30.2686 202.024 30.3666 201.762 30.4039C201.669 30.4226 201.562 30.4319 201.44 30.4319C201.338 30.4319 201.258 30.4179 201.202 30.3899C201.09 30.3712 201.016 30.3619 200.978 30.3619C200.95 30.3619 200.936 30.3806 200.936 30.4179C200.703 31.1086 200.512 31.7386 200.362 32.3079C200.036 33.2972 199.816 33.9412 199.704 34.2399C199.592 34.5479 199.513 34.7252 199.466 34.7719ZM201.216 29.6059C201.226 29.6432 201.277 29.6619 201.37 29.6619C201.566 29.6619 201.865 29.5732 202.266 29.3959C202.677 29.2092 202.999 29.0179 203.232 28.8219C203.428 28.5886 203.578 28.3972 203.68 28.2479C203.792 28.0892 203.848 27.9679 203.848 27.8839C203.848 27.8466 203.83 27.8092 203.792 27.7719C203.699 27.6319 203.531 27.5619 203.288 27.5619C202.98 27.5619 202.612 27.6786 202.182 27.9119C201.996 27.9772 201.86 28.0659 201.776 28.1779C201.702 28.2806 201.632 28.4112 201.566 28.5699C201.501 28.7286 201.45 28.8499 201.412 28.9339C201.263 29.2886 201.198 29.5126 201.216 29.6059ZM206.199 31.4399C206.087 31.4399 205.999 31.4212 205.933 31.3839C205.868 31.3466 205.775 31.2766 205.653 31.1739C205.345 30.8472 205.191 30.5486 205.191 30.2779C205.191 30.2126 205.196 30.1659 205.205 30.1379C205.233 30.0726 205.243 30.0072 205.233 29.9419C205.233 29.8766 205.233 29.8346 205.233 29.8159C205.196 29.7786 205.177 29.7552 205.177 29.7459C205.177 29.7272 205.187 29.7132 205.205 29.7039C205.224 29.6852 205.238 29.6666 205.247 29.6479C205.303 29.6479 205.322 29.5966 205.303 29.4939C205.285 29.4192 205.322 29.2559 205.415 29.0039C205.509 28.7426 205.625 28.5046 205.765 28.2899C205.868 28.1219 206.017 27.9119 206.213 27.6599C206.419 27.4079 206.601 27.2166 206.759 27.0859C206.983 26.8899 207.184 26.7452 207.361 26.6519C207.539 26.5586 207.735 26.4886 207.949 26.4419C208.136 26.3952 208.262 26.3719 208.327 26.3719C208.393 26.3719 208.449 26.3906 208.495 26.4279C208.551 26.4559 208.621 26.5119 208.705 26.5959C208.957 26.7079 209.13 26.8526 209.223 27.0299C209.326 27.1979 209.377 27.4639 209.377 27.8279C209.377 28.4346 209.13 29.0926 208.635 29.8019C208.421 30.1099 208.22 30.3479 208.033 30.5159C207.847 30.6746 207.599 30.8472 207.291 31.0339C207.095 31.1739 206.913 31.2766 206.745 31.3419C206.587 31.3979 206.405 31.4306 206.199 31.4399ZM207.543 29.9559C207.767 29.7039 207.945 29.4659 208.075 29.2419C208.215 29.0179 208.346 28.7332 208.467 28.3879C208.514 28.2292 208.537 28.0379 208.537 27.8139C208.537 27.5339 208.5 27.3752 208.425 27.3379C208.332 27.2912 208.239 27.2679 208.145 27.2679C207.94 27.2679 207.725 27.3612 207.501 27.5479C207.231 27.7812 206.988 28.0706 206.773 28.4159C206.559 28.7519 206.339 29.1719 206.115 29.6759C206.022 29.8719 205.975 30.0632 205.975 30.2499C205.975 30.3899 206.008 30.5019 206.073 30.5859C206.148 30.6699 206.246 30.7119 206.367 30.7119C206.675 30.7119 207.067 30.4599 207.543 29.9559ZM210.295 31.1599C210.22 31.1039 210.169 31.0526 210.141 31.0059C210.113 30.9592 210.099 30.8892 210.099 30.7959C210.099 30.7119 210.103 30.6419 210.113 30.5859C210.141 30.2686 210.211 29.8999 210.323 29.4799L210.393 29.1999C210.421 28.9666 210.584 28.4766 210.883 27.7299C211.181 26.9832 211.424 26.4746 211.611 26.2039C211.685 26.1572 211.765 26.1339 211.849 26.1339C211.97 26.1339 212.073 26.1759 212.157 26.2599C212.213 26.2972 212.241 26.3672 212.241 26.4699C212.241 26.5632 212.203 26.7032 212.129 26.8899C212.063 27.0672 211.947 27.3332 211.779 27.6879C211.741 27.7626 211.676 27.9026 211.583 28.1079C211.499 28.3132 211.457 28.4346 211.457 28.4719C211.457 28.4906 211.461 28.4999 211.471 28.4999C211.489 28.4999 211.508 28.4952 211.527 28.4859C211.545 28.4672 211.564 28.4532 211.583 28.4439C211.685 28.2666 211.933 28.0239 212.325 27.7159C212.726 27.4079 213.001 27.2166 213.151 27.1419C213.216 27.1046 213.3 27.0672 213.403 27.0299C213.505 26.9926 213.575 26.9646 213.613 26.9459C213.762 26.8712 213.939 26.8339 214.145 26.8339C214.275 26.8339 214.387 26.8572 214.481 26.9039C214.583 26.9412 214.653 27.0019 214.691 27.0859C214.7 27.1512 214.723 27.2026 214.761 27.2399C214.807 27.2772 214.84 27.3006 214.859 27.3099C214.887 27.3099 214.905 27.3239 214.915 27.3519C214.924 27.3706 214.929 27.3846 214.929 27.3939C214.929 27.4592 214.891 27.5012 214.817 27.5199C214.742 27.5292 214.607 27.5386 214.411 27.5479C214.308 27.5572 214.201 27.5806 214.089 27.6179C213.977 27.6552 213.865 27.7019 213.753 27.7579C213.23 28.0566 212.838 28.2899 212.577 28.4579C212.325 28.6259 212.068 28.8546 211.807 29.1439C211.704 29.2559 211.569 29.4566 211.401 29.7459C211.335 29.8112 211.265 29.9839 211.191 30.2639C211.125 30.5346 211.093 30.7026 211.093 30.7679C211.083 30.7959 211.065 30.8519 211.037 30.9359C211.009 31.0106 210.967 31.0852 210.911 31.1599C210.799 31.3092 210.705 31.3839 210.631 31.3839C210.547 31.3839 210.435 31.3092 210.295 31.1599ZM216.684 31.6219C216.553 31.5846 216.446 31.5426 216.362 31.4959C216.278 31.4492 216.166 31.3606 216.026 31.2299C215.858 31.0059 215.746 30.8006 215.69 30.6139C215.643 30.4179 215.62 30.1099 215.62 29.6899C215.62 29.4659 215.746 28.8499 215.998 27.8419C215.979 27.9072 216.012 27.7719 216.096 27.4359C216.124 27.3332 216.086 27.2679 215.984 27.2399C215.881 27.2119 215.736 27.1979 215.55 27.1979C215.391 27.1979 215.298 27.1886 215.27 27.1699C215.242 27.1606 215.223 27.1466 215.214 27.1279C215.214 27.1092 215.214 27.0952 215.214 27.0859C215.214 27.0392 215.195 26.9832 215.158 26.9179C215.148 26.9086 215.144 26.8946 215.144 26.8759C215.144 26.8292 215.167 26.7779 215.214 26.7219C215.27 26.6659 215.335 26.6332 215.41 26.6239C215.456 26.6146 215.564 26.6006 215.732 26.5819C215.9 26.5632 216.058 26.5259 216.208 26.4699C216.357 26.4139 216.474 26.3346 216.558 26.2319C216.679 25.9239 216.833 25.5786 217.02 25.1959C217.206 24.8039 217.332 24.5706 217.398 24.4959C217.547 24.4212 217.65 24.3839 217.706 24.3839C217.762 24.3839 217.808 24.4026 217.846 24.4399C217.883 24.4772 217.934 24.5426 218 24.6359C218.009 24.6546 218.032 24.6872 218.07 24.7339C218.107 24.7806 218.126 24.8272 218.126 24.8739C218.126 24.9486 218.088 25.0606 218.014 25.2099C217.948 25.3592 217.813 25.6206 217.608 25.9939L217.426 26.3439C217.454 26.3532 217.519 26.3579 217.622 26.3579C217.724 26.3579 217.808 26.3532 217.874 26.3439C218.079 26.3066 218.27 26.2879 218.448 26.2879C218.541 26.2879 218.606 26.2926 218.644 26.3019C218.858 26.3019 219.012 26.3439 219.106 26.4279C219.208 26.5026 219.269 26.6332 219.288 26.8199C219.306 26.9226 219.288 26.9832 219.232 27.0019C219.176 27.0206 219.017 27.0299 218.756 27.0299C217.673 27.0766 217.127 27.1186 217.118 27.1559C217.08 27.1839 217.01 27.3472 216.908 27.6459C216.805 27.9446 216.716 28.2292 216.642 28.4999C216.52 29.0599 216.46 29.5546 216.46 29.9839C216.46 30.3759 216.516 30.6372 216.628 30.7679C216.674 30.8146 216.763 30.8379 216.894 30.8379C217.024 30.8379 217.164 30.8146 217.314 30.7679C217.472 30.7119 217.603 30.6419 217.706 30.5579C217.874 30.4179 218.014 30.3479 218.126 30.3479C218.182 30.3479 218.224 30.3666 218.252 30.4039C218.289 30.4319 218.308 30.4692 218.308 30.5159C218.308 30.6186 218.252 30.7492 218.14 30.9079C218 31.1226 217.813 31.2999 217.58 31.4399C217.346 31.5799 217.122 31.6499 216.908 31.6499C216.805 31.6499 216.73 31.6406 216.684 31.6219Z" fill="#4F362F"/>
</svg>
